<svg id="Transport" xmlns="http://www.w3.org/2000/svg" viewBox="0 0 146 146"><defs><style>.cls-1{fill:#fff;}.cls-2{fill:none;stroke:#1d1d1b;stroke-miterlimit:10;stroke-width:2px;}.cls-3{fill:#1d1d1b;}</style></defs><title>transport</title><rect class="cls-1" x="1" y="1" width="144" height="144"/><circle class="cls-2" cx="73" cy="73" r="72"/><rect class="cls-3" x="80" y="39" width="41" height="68"/><path class="cls-3" d="M190,976v64H153V976h37m4-4H149v72h45V972Z" transform="translate(-70.97 -935.03)"/><path class="cls-3" d="M95.05,1035.09a3.68,3.68,0,0,1-3.68-3.68v-12.77a3.68,3.68,0,0,1,3.68-3.68H184.9a1.74,1.74,0,0,1,1.74,1.74v16.66a1.74,1.74,0,0,1-1.74,1.73Z" transform="translate(-70.97 -935.03)"/><path class="cls-1" d="M184.9,1016a.74.74,0,0,1,.74.74v16.66a.74.74,0,0,1-.74.73H95.05a2.69,2.69,0,0,1-2.68-2.68v-12.77a2.69,2.69,0,0,1,2.68-2.68H184.9m0-2H95.05a4.69,4.69,0,0,0-4.68,4.68v12.77a4.69,4.69,0,0,0,4.68,4.68H184.9a2.74,2.74,0,0,0,2.74-2.73V1016.7a2.74,2.74,0,0,0-2.74-2.74Z" transform="translate(-70.97 -935.03)"/><path class="cls-1" d="M164.67,1022a11,11,0,1,1-11,11,11,11,0,0,1,11-11m0-3.06A14.06,14.06,0,1,0,178.72,1033a14.08,14.08,0,0,0-14.05-14.06Z" transform="translate(-70.97 -935.03)"/><path class="cls-1" d="M164.67,1041.43a8.46,8.46,0,1,1,8.45-8.45A8.47,8.47,0,0,1,164.67,1041.43Z" transform="translate(-70.97 -935.03)"/><path class="cls-3" d="M164.67,1027.07a5.91,5.91,0,1,1-5.91,5.91,5.91,5.91,0,0,1,5.91-5.91m0-5.09a11,11,0,1,0,11,11,11,11,0,0,0-11-11Z" transform="translate(-70.97 -935.03)"/><path class="cls-1" d="M114.64,1022.43a10.8,10.8,0,1,1-10.8,10.8,10.81,10.81,0,0,1,10.8-10.8m0-3a13.8,13.8,0,1,0,13.8,13.8,13.81,13.81,0,0,0-13.8-13.8Z" transform="translate(-70.97 -935.03)"/><circle class="cls-1" cx="43.67" cy="98.2" r="8.3"/><path class="cls-3" d="M114.64,1027.43a5.8,5.8,0,1,1-5.8,5.8,5.8,5.8,0,0,1,5.8-5.8m0-5a10.8,10.8,0,1,0,10.8,10.8,10.81,10.81,0,0,0-10.8-10.8Z" transform="translate(-70.97 -935.03)"/><path class="cls-3" d="M116.81,1014.94V987.41h63.71a2.24,2.24,0,0,1,2.24,2.23v25.3Z" transform="translate(-70.97 -935.03)"/><path class="cls-1" d="M180.52,988.43a1.21,1.21,0,0,1,1.21,1.21v24.27h-63.9V988.43h62.69m0-2H115.78V1016h68V989.64a3.26,3.26,0,0,0-3.26-3.26Z" transform="translate(-70.97 -935.03)"/><path class="cls-3" d="M118.57,1015.78v-26h60a2.15,2.15,0,0,1,2.2,2.09v23.92Z" transform="translate(-70.97 -935.03)"/><path class="cls-3" d="M178.53,990.78h0a1.15,1.15,0,0,1,1.2,1.09v22.92H119.57v-24h59m0-2h-61v28h64.16V991.87a3.15,3.15,0,0,0-3.2-3.09Z" transform="translate(-70.97 -935.03)"/><rect class="cls-1" x="57.53" y="63.61" width="44.83" height="8.17"/><path class="cls-1" d="M172.83,999.14v7.17H129v-7.17h43.83m1-1H128v9.17h45.83v-9.17Z" transform="translate(-70.97 -935.03)"/><path class="cls-1" d="M102.35,1015.31l8.14-25a.57.57,0,0,1,.52-.41h6.28v25.38Z" transform="translate(-70.97 -935.03)"/><path class="cls-3" d="M115.79,991.43v22.39H104.42l7.29-22.39h4.08m3-3H111a2,2,0,0,0-1.94,1.45l-8.78,26.93h18.5V988.43Z" transform="translate(-70.97 -935.03)"/></svg>