<svg id="Anlieferung" xmlns="http://www.w3.org/2000/svg" viewBox="0 0 146 146"><defs><style>.cls-1,.cls-3{fill:#fff;}.cls-2{fill:none;stroke-width:2px;}.cls-2,.cls-3,.cls-4{stroke:#1d1d1b;stroke-miterlimit:10;}.cls-3{stroke-width:3px;}.cls-4,.cls-5{fill:#1d1d1b;}.cls-4{stroke-width:3.61px;}</style></defs><title>anlieferung</title><rect class="cls-1" x="1" y="1" width="144" height="144"/><circle class="cls-2" cx="73" cy="73" r="72"/><path class="cls-3" d="M29.8,38.08h53a4.73,4.73,0,0,1,4.73,4.73V79.27a0,0,0,0,1,0,0H29.8a0,0,0,0,1,0,0V38.08A0,0,0,0,1,29.8,38.08Z"/><path class="cls-4" d="M29.8,78.28h84.59a1.8,1.8,0,0,1,1.8,1.8V93.27a1.8,1.8,0,0,1-1.8,1.8H29.8a0,0,0,0,1,0,0V78.28A0,0,0,0,1,29.8,78.28Z"/><path class="cls-1" d="M118.77,806.9A10.8,10.8,0,1,1,108,817.7a10.8,10.8,0,0,1,10.8-10.8m0-3.2a14,14,0,1,0,14,14,14,14,0,0,0-14-14Z" transform="translate(-70.97 -719.03)"/><circle class="cls-1" cx="47.8" cy="98.67" r="8.4"/><path class="cls-5" d="M118.77,811.7a6,6,0,1,1-6,6,6,6,0,0,1,6-6m0-4.8a10.8,10.8,0,1,0,10.8,10.8,10.81,10.81,0,0,0-10.8-10.8Z" transform="translate(-70.97 -719.03)"/><path class="cls-1" d="M169.17,806.9a10.8,10.8,0,1,1-10.8,10.8,10.81,10.81,0,0,1,10.8-10.8m0-3.2a14,14,0,1,0,14,14,14,14,0,0,0-14-14Z" transform="translate(-70.97 -719.03)"/><circle class="cls-1" cx="98.2" cy="98.67" r="8.4"/><path class="cls-5" d="M169.17,811.7a6,6,0,1,1-6,6,6,6,0,0,1,6-6m0-4.8A10.8,10.8,0,1,0,180,817.7a10.8,10.8,0,0,0-10.8-10.8Z" transform="translate(-70.97 -719.03)"/><path class="cls-1" d="M160.37,797.71v-24.8h10.51a.77.77,0,0,1,.71.49l9.27,24.31Z" transform="translate(-70.97 -719.03)"/><path class="cls-5" d="M170,774.91l7.94,20.8H162.37v-20.8H170m.86-4H158.37v28.8h25.4l-10.31-27a2.76,2.76,0,0,0-2.58-1.77Z" transform="translate(-70.97 -719.03)"/></svg>