<svg id="Behälter" xmlns="http://www.w3.org/2000/svg" viewBox="0 0 146 146"><defs><style>.cls-1,.cls-4,.cls-5{fill:#fff;}.cls-2{fill:none;}.cls-2,.cls-4,.cls-5{stroke:#1d1d1b;stroke-miterlimit:10;}.cls-2,.cls-4{stroke-width:2px;}.cls-3{fill:#1d1d1b;}.cls-5{stroke-width:4px;}</style></defs><title>behaelter</title><rect class="cls-1" x="1" y="1" width="144" height="144"/><circle class="cls-2" cx="73" cy="73" r="72"/><path class="cls-3" d="M774,747.48h36v-6.21a51.62,51.62,0,0,0-36,0Z" transform="translate(-718.97 -719.03)"/><rect class="cls-1" x="56" y="29" width="34" height="61"/><path class="cls-3" d="M808,749v59H776V749h32m2-2H774v63h36V747Z" transform="translate(-718.97 -719.03)"/><path class="cls-4" d="M778.31,768.21v40H808v-38.6a27.37,27.37,0,0,0-29.66-1.45Z" transform="translate(-718.97 -719.03)"/><polygon class="cls-3" points="55 90.6 91 90.6 91 100.5 89.82 100.92 55 100.92 55 90.6"/><circle class="cls-3" cx="45.5" cy="73" r="4.33"/><polygon class="cls-1" points="56 126 56 101.5 88.55 101.5 63.59 126 56 126"/><path class="cls-3" d="M805.08,821.53,782.15,844H776v-22.5h29.11m4.89-2H774V846h9l27-26.5Z" transform="translate(-718.97 -719.03)"/><circle class="cls-3" cx="73" cy="100.5" r="10.5"/><line class="cls-5" x1="45.5" y1="73" x2="73" y2="100.5"/><circle class="cls-3" cx="73" cy="55.01" r="1"/><circle class="cls-3" cx="81.98" cy="55.01" r="1"/><circle class="cls-3" cx="64.02" cy="55.01" r="1"/><circle class="cls-3" cx="68.43" cy="50.4" r="1"/><circle class="cls-3" cx="77.42" cy="50.4" r="1"/><circle class="cls-3" cx="68.43" cy="59.5" r="1"/><circle class="cls-3" cx="77.42" cy="59.5" r="1"/><circle class="cls-3" cx="68.43" cy="68.37" r="1"/><circle class="cls-3" cx="77.42" cy="68.37" r="1"/><circle class="cls-3" cx="68.51" cy="77.5" r="1"/><circle class="cls-3" cx="77.49" cy="77.5" r="1"/><circle class="cls-3" cx="73" cy="64.05" r="1"/><circle class="cls-3" cx="81.98" cy="64.05" r="1"/><circle class="cls-3" cx="64.02" cy="64.05" r="1"/><circle class="cls-3" cx="73" cy="73" r="1"/><circle class="cls-3" cx="81.98" cy="73" r="1"/><circle class="cls-3" cx="64.02" cy="73" r="1"/><circle class="cls-3" cx="73" cy="82" r="1"/><circle class="cls-3" cx="81.98" cy="82" r="1"/><circle class="cls-3" cx="64.02" cy="82" r="1"/></svg>