<svg id="Dokumentation" xmlns="http://www.w3.org/2000/svg" viewBox="0 0 144 144"><defs><style>.cls-1{fill:#fff;}.cls-2,.cls-5{fill:#1d1d1b;}.cls-3,.cls-4{fill:none;}.cls-3,.cls-4,.cls-5{stroke:#1d1d1b;}.cls-3,.cls-5{stroke-linejoin:round;stroke-width:1.37px;}.cls-4{stroke-linecap:square;stroke-miterlimit:10;stroke-width:2px;}</style></defs><title>dokumentation</title><rect class="cls-1" width="144" height="144"/><path class="cls-2" d="M792,74a70,70,0,1,1-70,70,70.08,70.08,0,0,1,70-70m0-2a72,72,0,1,0,72,72,72,72,0,0,0-72-72Z" transform="translate(-719.97 -72.03)"/><path class="cls-2" d="M826.41,101a.74.74,0,0,1,.74.74v62.76H821V101.77a.74.74,0,0,1,.74-.74h4.63m0-2h-4.63a2.74,2.74,0,0,0-2.74,2.74v64.76h10.11V101.77A2.74,2.74,0,0,0,826.41,99Z" transform="translate(-719.97 -72.03)"/><path class="cls-2" d="M826.65,168.53,824.1,179.9l-2.56-11.37h5.11m2.5-2H819L824.1,189l5-22.5Z" transform="translate(-719.97 -72.03)"/><polygon class="cls-2" points="103.44 105.34 104.81 105.34 104.13 109.52 103.44 105.34"/><polygon class="cls-2" points="105.8 104.51 102.45 104.51 104.13 114.62 105.8 104.51 105.8 104.51"/><line class="cls-3" x1="104.13" y1="40.67" x2="104.13" y2="93.27"/><path class="cls-2" d="M801.1,101a1,1,0,0,1,.7.29L812.46,112V186a1,1,0,0,1-1,1h-57a1,1,0,0,1-1-1V102a1,1,0,0,1,1-1H801.1m0-2H754.46a3,3,0,0,0-3,3v84a3,3,0,0,0,3,3h57a3,3,0,0,0,3-3V112a2,2,0,0,0-.58-1.41L803.22,99.91A3,3,0,0,0,801.1,99Z" transform="translate(-719.97 -72.03)"/><line class="cls-4" x1="44.99" y1="99" x2="80.99" y2="99"/><line class="cls-4" x1="44.99" y1="90" x2="80.99" y2="90"/><line class="cls-4" x1="44.99" y1="81" x2="80.99" y2="81"/><line class="cls-4" x1="44.99" y1="72" x2="80.99" y2="72"/><line class="cls-4" x1="44.99" y1="63" x2="80.99" y2="63"/><line class="cls-4" x1="44.99" y1="54" x2="80.99" y2="54"/><line class="cls-4" x1="44.99" y1="45" x2="80.99" y2="45"/><rect class="cls-5" x="100.41" y="35.83" width="7.33" height="4.83"/></svg>