<svg id="Geräte" xmlns="http://www.w3.org/2000/svg" viewBox="0 0 146.41 146.41"><defs><style>.cls-1{fill:#fff;}.cls-2,.cls-4{fill:none;stroke:#1d1d1b;stroke-miterlimit:10;}.cls-2{stroke-width:2px;}.cls-3{fill:#1d1d1b;}.cls-4{stroke-width:3px;}</style></defs><title>geraete</title><rect class="cls-1" x="1.12" y="1" width="144" height="144"/><circle class="cls-2" cx="73.2" cy="73.2" r="72.2"/><path class="cls-3" d="M390.15,1052.57a2.6,2.6,0,0,1-2.59-2.6v-23.79h8.07V1050a2.6,2.6,0,0,1-2.59,2.6Z" transform="translate(-286.85 -935.03)"/><path class="cls-3" d="M395.17,1026.65V1050a2.13,2.13,0,0,1-2.13,2.12h-2.89A2.13,2.13,0,0,1,388,1050v-23.33h7.15m.93-.93h-9V1050a3,3,0,0,0,3,3H393a3.06,3.06,0,0,0,3.06-3v-24.26Z" transform="translate(-286.85 -935.03)"/><circle class="cls-1" cx="104.75" cy="107.5" r="3"/><path class="cls-3" d="M391.6,1041a1.5,1.5,0,1,1-1.5,1.5,1.5,1.5,0,0,1,1.5-1.5m0-3a4.5,4.5,0,1,0,4.5,4.5,4.5,4.5,0,0,0-4.5-4.5Z" transform="translate(-286.85 -935.03)"/><circle class="cls-1" cx="104.75" cy="96.5" r="3"/><path class="cls-3" d="M391.6,1030a1.5,1.5,0,1,1-1.5,1.5,1.5,1.5,0,0,1,1.5-1.5m0-3a4.5,4.5,0,1,0,4.5,4.5,4.5,4.5,0,0,0-4.5-4.5Z" transform="translate(-286.85 -935.03)"/><path class="cls-4" d="M368,981H354v-9a9,9,0,0,0-18,0v9H322a4,4,0,0,0-4,4v64a4,4,0,0,0,4,4h46a4,4,0,0,0,4-4V985A4,4,0,0,0,368,981Z" transform="translate(-286.85 -935.03)"/><circle class="cls-2" cx="58.12" cy="37" r="2.84"/><path class="cls-1" d="M388.6,1024.22V965.91c4.68,3.84,15.26,15.46,15.28,42.12,0,7.35-.13,13.5-.2,16.19Z" transform="translate(-286.85 -935.03)"/><path class="cls-3" d="M390.1,969.39c4.93,5.24,12.27,16.7,12.28,38.64,0,6.21-.09,11.57-.17,14.69H390.1V969.39m-3-6.36h0v62.69h18s.24-7.69.24-17.69c0-35.3-18.25-45-18.28-45Z" transform="translate(-286.85 -935.03)"/></svg>