<svg id="Hygiene" xmlns="http://www.w3.org/2000/svg" viewBox="0 0 146 146"><defs><style>.cls-1,.cls-4{fill:#fff;}.cls-2{fill:none;}.cls-2,.cls-4,.cls-5,.cls-6{stroke:#1d1d1b;stroke-miterlimit:10;}.cls-2,.cls-4{stroke-width:2px;}.cls-3,.cls-5,.cls-6{fill:#1d1d1b;}.cls-5{stroke-width:2.01px;}.cls-6{stroke-width:2.64px;}</style></defs><title>hygiene</title><rect class="cls-1" x="1" y="1" width="144" height="144"/><circle class="cls-2" cx="73" cy="73" r="72"/><path class="cls-1" d="M577.16,400.46a21.75,21.75,0,0,1-6.89-1.59L537.6,388.56l.77-13.76c4.22.4,8.68.87,13.37,1.36,12.66,1.33,25.75,2.71,34.33,2.71,4.32,0,7.19-.36,8.76-1.08l.06,0,13.94-8.85a4.8,4.8,0,0,1,2.66-.83,4.6,4.6,0,0,1,4,2.55c1.43,2.38.86,4.2-2,6.48l-7.12,5.27c-.43.31-16.21,11.09-24.54,16.78a9.7,9.7,0,0,1-4.62,1.3Z" transform="translate(-502.97 -287.03)"/><path class="cls-3" d="M611.49,369.08a3.64,3.64,0,0,1,3.12,2.06c1,1.69,1,3-1.77,5.17l-7.11,5.26c-.7.49-16.2,11.09-24.45,16.73a8.79,8.79,0,0,1-4.12,1.16,21.41,21.41,0,0,1-6.56-1.53h-.06l-31.9-10.07.67-11.94c3.91.37,8,.8,12.33,1.26,12.69,1.33,25.8,2.71,34.43,2.71,4.53,0,7.45-.38,9.18-1.18l.12-.05.12-.07,13.88-8.81,0,0,0,0a3.79,3.79,0,0,1,2.07-.64m0-2a5.77,5.77,0,0,0-3.19,1l-13.89,8.81c-1.52.7-4.46,1-8.34,1-11.89,0-32.62-2.67-48.64-4.16l-.87,15.57,33.38,10.53a22.69,22.69,0,0,0,7.22,1.65,10.92,10.92,0,0,0,5.13-1.43s24.5-16.74,24.62-16.84l7.15-5.3c2.73-2.15,4.24-4.49,2.26-7.78a5.55,5.55,0,0,0-4.83-3Z" transform="translate(-502.97 -287.03)"/><path class="cls-4" d="M591.21,375.11H575s0,0,0,0a6.6,6.6,0,0,0-6.11-4.69h-12.8a6.84,6.84,0,0,0-6.65,6.23c-.45,4.26,2.63,7.9,6.45,7.9h35.49a4.61,4.61,0,0,0,4.28-5.43A4.56,4.56,0,0,0,591.21,375.11Z" transform="translate(-502.97 -287.03)"/><rect class="cls-1" x="44.18" y="90.44" width="25.52" height="10.32"/><path class="cls-5" d="M34.27,86.48h10A3.52,3.52,0,0,1,47.83,90v12.34a3.52,3.52,0,0,1-3.52,3.52h-10a0,0,0,0,1,0,0V86.48A0,0,0,0,1,34.27,86.48Z"/><path class="cls-6" d="M587.85,343.47c0-6.56-11.88-23.76-11.88-23.76s-11.88,17.2-11.88,23.76a11.88,11.88,0,0,0,23.76,0Z" transform="translate(-502.97 -287.03)"/></svg>