<svg id="Kennzeichnung" xmlns="http://www.w3.org/2000/svg" viewBox="0 0 146 146"><defs><style>.cls-1{fill:#fff;}.cls-2,.cls-4{fill:none;stroke:#1d1d1b;stroke-miterlimit:10;}.cls-2{stroke-width:2px;}.cls-3{fill:#1d1d1b;}.cls-4{stroke-linecap:round;stroke-width:3px;}</style></defs><title>kennzeichnung</title><rect class="cls-1" x="1" y="1" width="144" height="144"/><circle class="cls-2" cx="73" cy="73" r="72"/><circle class="cls-2" cx="48.78" cy="46.78" r="4.5"/><path class="cls-3" d="M980.4,109h27.1l40.55,40.55-32.53,32.53L975,141.56v-27.1A5.44,5.44,0,0,1,980.4,109m0-4a9.43,9.43,0,0,0-9.43,9.43v28.75l44.55,44.55,38.18-38.18L1009.15,105Z" transform="translate(-934.97 -71.03)"/><line class="cls-4" x1="55.09" y1="78.55" x2="80.55" y2="53.09"/><line class="cls-4" x1="61.46" y1="84.91" x2="86.91" y2="59.46"/><line class="cls-4" x1="67.82" y1="91.28" x2="93.28" y2="65.82"/><line class="cls-4" x1="74.18" y1="97.64" x2="99.64" y2="72.18"/><line class="cls-4" x1="47.32" y1="46.33" x2="29.32" y2="46.33"/></svg>