<svg id="Kontrolle" xmlns="http://www.w3.org/2000/svg" viewBox="0 0 146 146"><defs><style>.cls-1,.cls-6{fill:#fff;}.cls-2,.cls-4,.cls-5,.cls-7{fill:none;}.cls-2,.cls-4,.cls-5,.cls-6,.cls-7{stroke:#1d1d1b;stroke-miterlimit:10;}.cls-2,.cls-4,.cls-5{stroke-width:2px;}.cls-3{fill:#1d1d1b;}.cls-4{stroke-linecap:square;}.cls-5{stroke-linecap:round;}.cls-6{stroke-width:3px;}.cls-7{stroke-width:4px;}</style></defs><title>kontrolle</title><rect class="cls-1" x="1" y="1" width="144" height="144"/><circle class="cls-2" cx="73" cy="73" r="72"/><path class="cls-3" d="M810.11,317a1,1,0,0,1,.7.29L821.47,328V402a1,1,0,0,1-1,1h-57a1,1,0,0,1-1-1V318a1,1,0,0,1,1-1h46.64m0-2H763.47a3,3,0,0,0-3,3v84a3,3,0,0,0,3,3h57a3,3,0,0,0,3-3V328a2,2,0,0,0-.58-1.41l-10.66-10.66a3,3,0,0,0-2.12-.88Z" transform="translate(-718.97 -287.03)"/><line class="cls-4" x1="55" y1="100" x2="91" y2="100"/><line class="cls-4" x1="55" y1="91" x2="91" y2="91"/><line class="cls-4" x1="55" y1="82" x2="91" y2="82"/><line class="cls-5" x1="55" y1="73" x2="91" y2="73"/><line class="cls-4" x1="55" y1="64" x2="91" y2="64"/><line class="cls-4" x1="55" y1="55" x2="91" y2="55"/><line class="cls-4" x1="55" y1="46" x2="91" y2="46"/><circle class="cls-6" cx="73" cy="73" r="17.51"/><path class="cls-3" d="M792,368.76a1.8,1.8,0,0,1-.93-.25l-8.19-4.73a1.85,1.85,0,0,1-.68-2.54,1.79,1.79,0,0,1,1.13-.87,2,2,0,0,1,.49-.07,1.87,1.87,0,0,1,.92.25l6.58,3.8,6.16-10.67a1.86,1.86,0,0,1,1.62-.93,1.85,1.85,0,0,1,1.79,1.38,1.79,1.79,0,0,1-.18,1.41l-7.09,12.29A1.87,1.87,0,0,1,792,368.76Z" transform="translate(-718.97 -287.03)"/><path class="cls-3" d="M799.12,353.25h0a1.38,1.38,0,0,1,.68.18,1.35,1.35,0,0,1,.63.84,1.3,1.3,0,0,1-.13,1l-7.1,12.29a1.37,1.37,0,0,1-1.86.5l-8.19-4.73a1.36,1.36,0,0,1-.5-1.86,1.33,1.33,0,0,1,.84-.64,1.34,1.34,0,0,1,.35-.05,1.33,1.33,0,0,1,.67.19l6.15,3.54.86.5.5-.86,5.91-10.24a1.39,1.39,0,0,1,1.19-.68m0-1a2.36,2.36,0,0,0-2,1.18l-5.91,10.24L785,360.12a2.37,2.37,0,0,0-1.17-.32,2.16,2.16,0,0,0-.62.09,2.34,2.34,0,0,0-1.44,1.1,2.37,2.37,0,0,0,.87,3.23l8.19,4.72a2.3,2.3,0,0,0,1.18.32,2.36,2.36,0,0,0,2.05-1.18l7.09-12.29a2.32,2.32,0,0,0,.24-1.79,2.39,2.39,0,0,0-1.1-1.44,2.42,2.42,0,0,0-1.18-.31Z" transform="translate(-718.97 -287.03)"/><line class="cls-7" x1="85.55" y1="86.16" x2="98.02" y2="98.63"/></svg>