<svg id="Lagerung" xmlns="http://www.w3.org/2000/svg" viewBox="0 0 146 146"><defs><style>.cls-1{fill:#fff;}.cls-2,.cls-3,.cls-4{fill:none;stroke:#1d1d1b;stroke-miterlimit:10;}.cls-2{stroke-width:2px;}.cls-3{stroke-width:3px;}.cls-4{stroke-width:4px;}</style></defs><title>lagerung</title><rect class="cls-1" x="1" y="1" width="144" height="144"/><circle class="cls-2" cx="73" cy="73" r="72"/><line class="cls-3" x1="28" y1="55" x2="118" y2="55"/><line class="cls-3" x1="28" y1="109" x2="118" y2="109"/><rect class="cls-2" x="37" y="91" width="27" height="18"/><rect class="cls-2" x="82" y="91" width="27" height="18"/><line class="cls-4" x1="46" y1="100" x2="55" y2="100"/><line class="cls-4" x1="91" y1="100" x2="100" y2="100"/><line class="cls-3" x1="28" y1="82" x2="118" y2="82"/><rect class="cls-2" x="37" y="64" width="18" height="18"/><rect class="cls-2" x="64" y="64" width="18" height="18"/><rect class="cls-2" x="91" y="64" width="18" height="18"/><line class="cls-4" x1="46" y1="64" x2="46" y2="73"/><line class="cls-4" x1="73" y1="64" x2="73" y2="73"/><line class="cls-4" x1="100" y1="64" x2="100" y2="73"/><rect class="cls-2" x="37" y="37" width="9" height="18"/><rect class="cls-2" x="55" y="37" width="9" height="18"/><rect class="cls-2" x="82" y="37" width="9" height="18"/><rect class="cls-2" x="100" y="37" width="9" height="18"/><line class="cls-4" x1="37" y1="37" x2="46" y2="37"/><line class="cls-4" x1="55" y1="37" x2="64" y2="37"/><line class="cls-4" x1="82" y1="37" x2="91" y2="37"/><line class="cls-4" x1="100" y1="37" x2="109" y2="37"/></svg>