<svg id="Lebensmittelabfälle" xmlns="http://www.w3.org/2000/svg" viewBox="0 0 146 146"><defs><style>.cls-1{fill:#fff;}.cls-2,.cls-5,.cls-6,.cls-7{fill:none;}.cls-2,.cls-4,.cls-5,.cls-6,.cls-7{stroke:#1d1d1b;}.cls-2,.cls-4,.cls-5,.cls-7{stroke-miterlimit:10;}.cls-2,.cls-5,.cls-6{stroke-width:2px;}.cls-3,.cls-4{fill:#1d1d1b;}.cls-4{stroke-width:0.5px;}.cls-5,.cls-6{stroke-linecap:round;}.cls-6{stroke-linejoin:bevel;}.cls-7{stroke-width:2.03px;}</style></defs><title>lebensmittelabfaelle</title><rect class="cls-1" x="1.5" y="1" width="144" height="144"/><circle class="cls-2" cx="73" cy="73" r="72"/><path class="cls-1" d="M342.54,834.52a1.78,1.78,0,0,1-1.76-1.63l-6.17-76.7h50.55L379,832.89a1.79,1.79,0,0,1-1.77,1.63Z" transform="translate(-286.97 -719.03)"/><path class="cls-3" d="M383,758.19l-6,74.33H342.75l-6-74.33H383m4.21-4H332.57a.12.12,0,0,0-.12.13l6.33,78.73a3.78,3.78,0,0,0,3.76,3.47h34.68a3.77,3.77,0,0,0,3.76-3.47l6.33-78.73a.11.11,0,0,0-.11-.13Z" transform="translate(-286.97 -719.03)"/><path class="cls-1" d="M378.23,834.78a7.1,7.1,0,1,1,7.09-7.1A7.11,7.11,0,0,1,378.23,834.78Z" transform="translate(-286.97 -719.03)"/><path class="cls-3" d="M378.23,822.58a5.1,5.1,0,1,1-5.1,5.1,5.1,5.1,0,0,1,5.1-5.1m0-4a9.1,9.1,0,1,0,9.09,9.1,9.09,9.09,0,0,0-9.09-9.1Z" transform="translate(-286.97 -719.03)"/><path class="cls-4" d="M359.88,780.17a7,7,0,0,1,6.95,6.94c0,4.58-6.1,13.12-6.36,13.48l-.59.81-.58-.81c-.26-.36-6.36-8.87-6.36-13.48A6.94,6.94,0,0,1,359.88,780.17Zm0,18.74c1.53-2.25,5.51-8.45,5.51-11.8a5.51,5.51,0,0,0-11,0C354.37,790.49,358.36,796.67,359.88,798.91Z" transform="translate(-286.97 -719.03)"/><line class="cls-5" x1="67.4" y1="68.82" x2="70.3" y2="68.82"/><line class="cls-5" x1="74.24" y1="71.75" x2="77.49" y2="71.75"/><path class="cls-5" d="M358.14,774.86c.61,1.16.27,4.45.27,4.45s-3.87-1.06-4.48-2.23a2.38,2.38,0,0,1,4.21-2.22Z" transform="translate(-286.97 -719.03)"/><path class="cls-6" d="M365.5,774.78c-.53,1.26-5.56,5.38-5.56,5.38s.47-6.06,1-7.32a2.48,2.48,0,1,1,4.56,1.94Z" transform="translate(-286.97 -719.03)"/><path class="cls-3" d="M387.31,754.19l-54.74-3.63.17-2.56c.15-2.31,2.53-4,5.3-3.84l44.69,3c2.78.18,4.91,2.2,4.75,4.5Z" transform="translate(-286.97 -719.03)"/><path class="cls-7" d="M342.58,742.26h8.33a.41.41,0,0,1,.41.41v3a0,0,0,0,1,0,0h-9.15a0,0,0,0,1,0,0v-3A.41.41,0,0,1,342.58,742.26Z" transform="translate(-236.94 -740.36) rotate(3.8)"/><circle class="cls-3" cx="100.34" cy="35.16" r="2"/></svg>