<svg id="Meldepflichten" xmlns="http://www.w3.org/2000/svg" viewBox="0 0 146 146"><defs><style>.cls-1{fill:#fff;}.cls-2{fill:none;stroke:#1d1d1b;stroke-miterlimit:10;stroke-width:2px;}.cls-3{fill:#1d1d1b;}</style></defs><title>meldepflichten</title><rect class="cls-1" x="1" y="1" width="144" height="144"/><circle class="cls-2" cx="73" cy="73" r="72"/><path class="cls-3" d="M144,535.11a3.6,3.6,0,0,1,2.55,1l37.33,37.34a3.56,3.56,0,0,1,1,2.54,3.6,3.6,0,0,1-1,2.55l-37.33,37.33a3.6,3.6,0,0,1-2.55,1,3.56,3.56,0,0,1-2.54-1l-37.34-37.33a3.6,3.6,0,0,1-1-2.55,3.56,3.56,0,0,1,1-2.54l37.34-37.34a3.56,3.56,0,0,1,2.54-1m0-6a9.57,9.57,0,0,0-6.79,2.8L99.85,569.24a9.62,9.62,0,0,0,0,13.58l37.33,37.33a9.63,9.63,0,0,0,13.58,0l37.33-37.33a9.62,9.62,0,0,0,0-13.58l-37.33-37.33a9.57,9.57,0,0,0-6.79-2.8Z" transform="translate(-70.97 -503.03)"/><circle class="cls-3" cx="73" cy="93" r="2.8"/><path class="cls-3" d="M144,595.23a.8.8,0,1,1-.8.8.8.8,0,0,1,.8-.8m0-4a4.8,4.8,0,1,0,4.8,4.8,4.8,4.8,0,0,0-4.8-4.8Z" transform="translate(-70.97 -503.03)"/><path class="cls-3" d="M144,588.58a2.14,2.14,0,0,1-2.13-1.87l-4.63-27.11h0v-.31a7.11,7.11,0,0,1-.2-1.66,6.95,6.95,0,1,1,13.9,0,7.11,7.11,0,0,1-.2,1.66l-.08.31h.13l-4.63,26.9h0l0,.22A2.15,2.15,0,0,1,144,588.58Z" transform="translate(-70.97 -503.03)"/><path class="cls-3" d="M144,550.93a6.71,6.71,0,0,1,6.7,6.7,6.61,6.61,0,0,1-.19,1.6l-.16.62h.15l-4.54,26.4h0l-.06.44a1.9,1.9,0,0,1-3.76,0v-.09l-4.57-26.74h.11l-.16-.62a7.14,7.14,0,0,1-.19-1.6,6.71,6.71,0,0,1,6.7-6.7m0-.5a7.2,7.2,0,0,0-7.2,7.2,7,7,0,0,0,.21,1.72h-.06l4.67,27.33v.06a2.4,2.4,0,0,0,4.75,0h0l4.71-27.4H151a7,7,0,0,0,.21-1.72,7.2,7.2,0,0,0-7.2-7.2Z" transform="translate(-70.97 -503.03)"/></svg>