<svg id="Methoden" xmlns="http://www.w3.org/2000/svg" viewBox="0 0 146 146"><defs><style>.cls-1{fill:#fff;}.cls-2{fill:none;stroke:#1d1d1b;stroke-miterlimit:10;stroke-width:2px;}.cls-3{fill:#1d1d1b;}</style></defs><title>methoden</title><rect class="cls-1" x="1" y="1" width="144" height="144"/><circle class="cls-2" cx="73" cy="73" r="72"/><path class="cls-3" d="M351,315.64h0m6.7.66,1.78,6.87a3.09,3.09,0,0,0,2.25,2.23,30.24,30.24,0,0,1,8.57,3.67,3.1,3.1,0,0,0,3.16.09l6.2-3.45,4.74,5-3.74,6a3.09,3.09,0,0,0-.07,3.16,29.8,29.8,0,0,1,2.93,7.33,3.14,3.14,0,0,0,2.23,2.25l6.87,1.78v6.86l-6.87,1.78a3.12,3.12,0,0,0-2.23,2.25,29.84,29.84,0,0,1-3.67,8.57,3.11,3.11,0,0,0-.09,3.17l3.45,6.2-5,4.73-6-3.74A3.08,3.08,0,0,0,369,381a30.13,30.13,0,0,1-7.32,2.93,3.09,3.09,0,0,0-2.25,2.23L357.68,393h-6.87L349,386.15a3.09,3.09,0,0,0-2.25-2.23,30,30,0,0,1-8.57-3.68,3.14,3.14,0,0,0-1.66-.48,3.06,3.06,0,0,0-1.5.4l-6.2,3.45-4.74-5,3.74-6a3.11,3.11,0,0,0,.07-3.17,29.73,29.73,0,0,1-2.93-7.32,3.12,3.12,0,0,0-2.23-2.25l-6.87-1.78v-6.86l6.87-1.78A3.14,3.14,0,0,0,325,347.2a29.72,29.72,0,0,1,3.67-8.57,3.11,3.11,0,0,0,.09-3.17l-3.45-6.2,5-4.73,6,3.74a3.16,3.16,0,0,0,1.64.47,3.08,3.08,0,0,0,1.53-.41,30.13,30.13,0,0,1,7.32-2.93,3.09,3.09,0,0,0,2.25-2.23l1.78-6.87h6.87m-26.92,7.75h0m49.48,1.33h0M358.36,314.3h-8.23a1.12,1.12,0,0,0-1.08.84l-1.95,7.53a1.1,1.1,0,0,1-.81.79,32.23,32.23,0,0,0-7.81,3.13,1.08,1.08,0,0,1-.55.15,1.12,1.12,0,0,1-.58-.17l-6.61-4.1a1,1,0,0,0-.59-.17,1.1,1.1,0,0,0-.77.31l-6,5.67a1.12,1.12,0,0,0-.2,1.36l3.78,6.79a1.11,1.11,0,0,1,0,1.13,32,32,0,0,0-3.92,9.15,1.1,1.1,0,0,1-.79.8l-7.53,1.95a1.11,1.11,0,0,0-.84,1.08v8.24a1.12,1.12,0,0,0,.84,1.08l7.52,1.95a1.1,1.1,0,0,1,.8.8,31.51,31.51,0,0,0,3.13,7.81,1.16,1.16,0,0,1,0,1.14l-4.11,6.6a1.12,1.12,0,0,0,.14,1.36l5.68,6a1.11,1.11,0,0,0,.81.35,1.17,1.17,0,0,0,.54-.14l6.8-3.79a1.13,1.13,0,0,1,.53-.14,1.08,1.08,0,0,1,.6.18,32.22,32.22,0,0,0,9.14,3.92,1.1,1.1,0,0,1,.81.79l1.95,7.53a1.12,1.12,0,0,0,1.08.84h8.23a1.12,1.12,0,0,0,1.08-.84l1.95-7.53a1.1,1.1,0,0,1,.81-.79,32.63,32.63,0,0,0,7.81-3.13,1.08,1.08,0,0,1,.55-.15,1.12,1.12,0,0,1,.58.17l6.61,4.1a1,1,0,0,0,.59.17,1.1,1.1,0,0,0,.77-.31l6-5.68a1.11,1.11,0,0,0,.2-1.35l-3.78-6.79a1.13,1.13,0,0,1,0-1.14,31.54,31.54,0,0,0,3.92-9.14,1.1,1.1,0,0,1,.8-.8l7.53-1.95a1.12,1.12,0,0,0,.83-1.08v-8.24a1.11,1.11,0,0,0-.83-1.08l-7.53-1.95a1.1,1.1,0,0,1-.8-.8,32.11,32.11,0,0,0-3.12-7.82,1.12,1.12,0,0,1,0-1.13l4.11-6.6a1.11,1.11,0,0,0-.14-1.36l-5.68-6a1.11,1.11,0,0,0-.81-.35,1.17,1.17,0,0,0-.54.14l-6.8,3.79a1.12,1.12,0,0,1-.53.13,1.07,1.07,0,0,1-.6-.17,32.22,32.22,0,0,0-9.14-3.92,1.1,1.1,0,0,1-.81-.79l-1.95-7.53a1.12,1.12,0,0,0-1.08-.84Z" transform="translate(-286.97 -287.03)"/><path class="cls-3" d="M354.25,336.09a18.57,18.57,0,1,1-18.57,18.57,18.59,18.59,0,0,1,18.57-18.57m0-2a20.57,20.57,0,1,0,20.56,20.57,20.56,20.56,0,0,0-20.56-20.57Z" transform="translate(-286.97 -287.03)"/><path class="cls-3" d="M354.25,344.94a9.72,9.72,0,1,1-9.73,9.72,9.73,9.73,0,0,1,9.73-9.72m0-4A13.72,13.72,0,1,0,368,354.66a13.73,13.73,0,0,0-13.72-13.72Z" transform="translate(-286.97 -287.03)"/><path class="cls-3" d="M382.65,407.92a.1.1,0,0,1-.09-.07l-1-4a1.09,1.09,0,0,0-.79-.78,16.44,16.44,0,0,1-4.7-2,1.12,1.12,0,0,0-.58-.17,1.07,1.07,0,0,0-.53.13l-3.6,2-.11,0-3-3.16a.09.09,0,0,1,0-.11l2.17-3.5a1.08,1.08,0,0,0,0-1.11,16.16,16.16,0,0,1-1.6-4,1.09,1.09,0,0,0-.78-.79l-4-1a.11.11,0,0,1-.07-.09v-4.37a.08.08,0,0,1,.07-.08l4-1a1.09,1.09,0,0,0,.78-.79,16.56,16.56,0,0,1,2-4.7,1.1,1.1,0,0,0,0-1.11l-2-3.6a.09.09,0,0,1,0-.11l3.16-3h.11l3.5,2.18a1.14,1.14,0,0,0,.57.16,1.11,1.11,0,0,0,.54-.14,16.65,16.65,0,0,1,4-1.61,1.09,1.09,0,0,0,.79-.78l1-4a.1.1,0,0,1,.09-.07H387a.1.1,0,0,1,.09.07l1,4a1.11,1.11,0,0,0,.79.78,16.32,16.32,0,0,1,4.7,2,1.12,1.12,0,0,0,.59.17,1.06,1.06,0,0,0,.52-.13l3.6-2,.11,0,3,3.16a.09.09,0,0,1,0,.11l-2.18,3.5a1.08,1.08,0,0,0,0,1.11,16.58,16.58,0,0,1,1.61,4,1.06,1.06,0,0,0,.78.79l4,1a.08.08,0,0,1,.06.08v4.37a.08.08,0,0,1-.06.08l-4,1a1.06,1.06,0,0,0-.78.79,16.58,16.58,0,0,1-2,4.7,1.1,1.1,0,0,0,0,1.11l2,3.6a.09.09,0,0,1,0,.11l-3.16,3h-.11l-3.5-2.18a1.14,1.14,0,0,0-.57-.16,1.11,1.11,0,0,0-.54.14,16.49,16.49,0,0,1-4,1.61,1.11,1.11,0,0,0-.79.78l-1,4a.1.1,0,0,1-.09.07Z" transform="translate(-286.97 -287.03)"/><path class="cls-3" d="M383.05,366.35h0m3.65.3.95,3.69a1.6,1.6,0,0,0,1.15,1.14,15.86,15.86,0,0,1,4.56,1.95,1.59,1.59,0,0,0,1.61,0l3.33-1.85,2.57,2.7-2,3.23a1.59,1.59,0,0,0,0,1.62,15.83,15.83,0,0,1,1.56,3.9,1.6,1.6,0,0,0,1.14,1.15l3.68.95v3.73l-3.68,1a1.6,1.6,0,0,0-1.14,1.15,16,16,0,0,1-1.95,4.56,1.59,1.59,0,0,0-.05,1.62l1.85,3.32-2.7,2.58-3.23-2a1.54,1.54,0,0,0-.83-.24,1.56,1.56,0,0,0-.79.21,16,16,0,0,1-3.89,1.56,1.58,1.58,0,0,0-1.15,1.14l-.95,3.68H383l-1-3.68a1.57,1.57,0,0,0-1.15-1.14,16,16,0,0,1-4.56-2,1.55,1.55,0,0,0-.84-.24,1.58,1.58,0,0,0-.77.2l-3.33,1.85-2.57-2.7,2-3.23a1.62,1.62,0,0,0,0-1.62,15.91,15.91,0,0,1-1.56-3.9,1.6,1.6,0,0,0-1.14-1.15l-3.68-1v-3.73l3.68-.95a1.6,1.6,0,0,0,1.14-1.15,16,16,0,0,1,2-4.56,1.59,1.59,0,0,0,0-1.62l-1.85-3.32,2.7-2.58,3.23,2a1.54,1.54,0,0,0,.83.24A1.56,1.56,0,0,0,377,373a16,16,0,0,1,3.89-1.55,1.6,1.6,0,0,0,1.15-1.14l1-3.69h3.73m-14.35,4.12h0m26.23.7h0M387,365.65h-4.36a.58.58,0,0,0-.57.44l-1,4a.59.59,0,0,1-.42.43,16.81,16.81,0,0,0-4.14,1.65.64.64,0,0,1-.3.08.55.55,0,0,1-.3-.09l-3.5-2.17a.61.61,0,0,0-.31-.09.57.57,0,0,0-.41.16l-3.16,3a.59.59,0,0,0-.11.72l2,3.6a.61.61,0,0,1,0,.6,16.72,16.72,0,0,0-2.08,4.84.59.59,0,0,1-.42.43l-4,1a.59.59,0,0,0-.44.57v4.37a.59.59,0,0,0,.44.57l4,1a.59.59,0,0,1,.42.43,16.76,16.76,0,0,0,1.66,4.14.61.61,0,0,1,0,.6l-2.18,3.5a.59.59,0,0,0,.08.72l3,3.16a.58.58,0,0,0,.42.18.59.59,0,0,0,.29-.07l3.6-2a.59.59,0,0,1,.29-.07.56.56,0,0,1,.31.09,17.18,17.18,0,0,0,4.85,2.08.56.56,0,0,1,.42.42l1,4a.58.58,0,0,0,.57.44H387a.58.58,0,0,0,.57-.44l1-4a.57.57,0,0,1,.43-.42,17.33,17.33,0,0,0,4.13-1.66.67.67,0,0,1,.3-.08.55.55,0,0,1,.3.09l3.5,2.17a.62.62,0,0,0,.32.09A.61.61,0,0,0,398,404l3.15-3a.59.59,0,0,0,.11-.72l-2-3.6a.57.57,0,0,1,0-.6,17,17,0,0,0,2.07-4.84.59.59,0,0,1,.42-.43l4-1a.59.59,0,0,0,.44-.57v-4.37a.59.59,0,0,0-.44-.57l-4-1a.59.59,0,0,1-.42-.43,16.76,16.76,0,0,0-1.66-4.14.61.61,0,0,1,0-.6l2.18-3.5a.6.6,0,0,0-.07-.72l-3-3.16a.6.6,0,0,0-.43-.18.51.51,0,0,0-.29.08l-3.6,2a.58.58,0,0,1-.28.07.62.62,0,0,1-.32-.09,16.93,16.93,0,0,0-4.84-2.07.6.6,0,0,1-.43-.43l-1-4a.58.58,0,0,0-.57-.44Z" transform="translate(-286.97 -287.03)"/><path class="cls-3" d="M384.83,397.43A10.4,10.4,0,1,1,395.23,387,10.41,10.41,0,0,1,384.83,397.43Z" transform="translate(-286.97 -287.03)"/><path class="cls-1" d="M384.83,377.14a9.9,9.9,0,1,1-9.9,9.9,9.91,9.91,0,0,1,9.9-9.9m0-1a10.9,10.9,0,1,0,10.9,10.9,10.9,10.9,0,0,0-10.9-10.9Z" transform="translate(-286.97 -287.03)"/><path class="cls-1" d="M384.83,393.31A6.28,6.28,0,1,1,391.1,387,6.28,6.28,0,0,1,384.83,393.31Z" transform="translate(-286.97 -287.03)"/><path class="cls-3" d="M384.83,381.76a5.28,5.28,0,1,1-5.27,5.28,5.28,5.28,0,0,1,5.27-5.28m0-2A7.28,7.28,0,1,0,392.1,387a7.27,7.27,0,0,0-7.27-7.28Z" transform="translate(-286.97 -287.03)"/></svg>