<svg id="Notfallvorkehrungen" xmlns="http://www.w3.org/2000/svg" viewBox="0 0 146 146"><defs><style>.cls-1{fill:#fff;}.cls-2{fill:none;stroke:#1d1d1b;stroke-miterlimit:10;stroke-width:2px;}.cls-3{fill:#1d1d1b;}</style></defs><title>notfallvorkehrungen</title><rect class="cls-1" x="1" y="1" width="144" height="144"/><circle class="cls-2" cx="73" cy="73" r="72"/><path class="cls-3" d="M348.85,537.69l0,0v6.08a3,3,0,0,0,3,3l51.6,0,0,59.68-87,0,0-68.78h32.36m0-2H316.49a2,2,0,0,0-2,2v68.76a2,2,0,0,0,2,2h87a2,2,0,0,0,2-2V546.81a2,2,0,0,0-2-2H351.87a1,1,0,0,1-1-1v-6.08a2,2,0,0,0-2-2Z" transform="translate(-286.97 -503.03)"/><path class="cls-3" d="M360,554.11A21.92,21.92,0,1,1,338.05,576,21.95,21.95,0,0,1,360,554.11m0-2A23.92,23.92,0,1,0,383.89,576,23.92,23.92,0,0,0,360,552.11Z" transform="translate(-286.97 -503.03)"/><polygon class="cls-3" points="77 61 69 61 69 85 77 85 77 61 77 61"/><polygon class="cls-3" points="85 69 61 69 61 77 85 77 85 69 85 69"/></svg>