<svg id="Sanitärräume" xmlns="http://www.w3.org/2000/svg" viewBox="0 0 146 146"><defs><style>.cls-1{fill:#fff;}.cls-2,.cls-3,.cls-5,.cls-6{fill:none;}.cls-2,.cls-3,.cls-5,.cls-6,.cls-7{stroke:#1d1d1b;stroke-miterlimit:10;}.cls-2,.cls-6{stroke-width:2px;}.cls-3{stroke-width:4px;}.cls-4,.cls-7{fill:#1d1d1b;}.cls-5{stroke-width:10px;}.cls-6,.cls-7{stroke-linecap:round;}.cls-7{stroke-width:1.88px;}</style></defs><title>sanitaerraeume</title><rect class="cls-1" x="1" y="1" width="144" height="144"/><circle class="cls-2" cx="73" cy="73" r="72"/><path class="cls-3" d="M99.82,37h.35A8.82,8.82,0,0,1,109,45.82V70a5,5,0,0,1-5,5H91a0,0,0,0,1,0,0V45.82A8.82,8.82,0,0,1,99.82,37Z"/><path class="cls-4" d="M562.89,599.28c7.32,0,13.55,3.69,15.73,8.8H547.16c2.18-5.11,8.41-8.8,15.73-8.8m0-4c-11.35,0-20.56,7.52-20.56,16.8h41.12c0-9.28-9.21-16.8-20.56-16.8Z" transform="translate(-502.97 -503.03)"/><path class="cls-5" d="M598.47,612.05c0-14.29-10.76-25.88-24-25.88" transform="translate(-502.97 -503.03)"/><path class="cls-1" d="M562.47,601c-15.47,0-28.2-10.15-29.41-23h58.82C590.67,590.88,577.94,601,562.47,601Z" transform="translate(-502.97 -503.03)"/><path class="cls-4" d="M589.55,580c-2.27,10.78-13.55,19-27.08,19s-24.81-8.22-27.08-19h54.16m4.42-4H531c0,14.91,14.1,27,31.5,27S594,590.94,594,576Z" transform="translate(-502.97 -503.03)"/><line class="cls-6" x1="100" y1="46" x2="91" y2="46"/><path class="cls-1" d="M532,575V573a5,5,0,0,1,4.94-4.94H588A4.94,4.94,0,0,1,593,573V575Z" transform="translate(-502.97 -503.03)"/><path class="cls-4" d="M588,569A4,4,0,0,1,592,573V574H533V573a4,4,0,0,1,3.94-3.94H588m0-2H536.91A5.94,5.94,0,0,0,531,573V576h63V573A5.94,5.94,0,0,0,588,567Z" transform="translate(-502.97 -503.03)"/><circle class="cls-7" cx="100" cy="46" r="2.06"/></svg>