<svg id="Schulung" xmlns="http://www.w3.org/2000/svg" viewBox="0 0 146 146"><defs><style>.cls-1,.cls-3{fill:#fff;}.cls-2{fill:none;}.cls-2,.cls-3,.cls-4,.cls-6{stroke:#1d1d1b;stroke-miterlimit:10;}.cls-2,.cls-3{stroke-width:2px;}.cls-4,.cls-5,.cls-6{fill:#1d1d1b;}.cls-6{stroke-linecap:round;stroke-width:6px;}</style></defs><title>schulung</title><rect class="cls-1" x="1" y="1" width="144" height="144"/><circle class="cls-2" cx="73" cy="73" r="72"/><path class="cls-3" d="M98.3,95.86h13.14a6.57,6.57,0,0,1,6.57,6.57V109a0,0,0,0,1,0,0H91.73a0,0,0,0,1,0,0v-6.57A6.57,6.57,0,0,1,98.3,95.86Z"/><circle class="cls-4" cx="104.86" cy="89.3" r="6.57"/><path class="cls-3" d="M70.57,95.86H83.7a6.57,6.57,0,0,1,6.57,6.57V109a0,0,0,0,1,0,0H64a0,0,0,0,1,0,0v-6.57A6.57,6.57,0,0,1,70.57,95.86Z"/><circle class="cls-4" cx="77.14" cy="89.3" r="6.57"/><path class="cls-4" d="M34.63,41.25H44.94a6.63,6.63,0,0,1,6.63,6.63V65.55a2.21,2.21,0,0,1-2.21,2.21H28a0,0,0,0,1,0,0V47.88a6.63,6.63,0,0,1,6.63-6.63Z"/><circle class="cls-4" cx="41.25" cy="34.63" r="6.63"/><rect class="cls-1" x="55.94" y="28.94" width="61.13" height="43.13"/><path class="cls-5" d="M187.1,316.9v41.26H127.84V316.9H187.1M189,315H126v45h63V315Z" transform="translate(-70.97 -287.03)"/><rect class="cls-4" x="41.25" y="41.25" width="33.14" height="6.63" rx="3.31"/><rect class="cls-4" x="28" y="60.4" width="6.48" height="12.96" rx="3.24"/><polygon class="cls-4" points="36.84 100.9 47.88 100.9 50.83 67.03 34.63 67.03 36.84 100.9"/><line class="cls-6" x1="103.22" y1="68.2" x2="109.66" y2="68.2"/></svg>