<svg xmlns="http://www.w3.org/2000/svg" viewBox="0 0 146 146"><defs><style>.cls-1{fill:#fff;}.cls-2{fill:none;stroke-width:2px;}.cls-2,.cls-5{stroke:#1d1d1b;}.cls-2,.cls-4,.cls-5{stroke-miterlimit:10;}.cls-3,.cls-4,.cls-5{fill:#1d1d1b;}.cls-4{stroke:#fff;stroke-width:7.4px;}.cls-5{stroke-width:2.66px;}</style></defs><title>Element 5</title><g id="Ebene_2" data-name="Ebene 2"><g id="Transport_allgemein" data-name="Transport allgemein"><rect class="cls-1" x="1" y="1" width="144" height="144"/><circle class="cls-2" cx="73" cy="73" r="72"/><rect class="cls-3" x="76.59" y="37.3" width="40.7" height="70.98"/><path class="cls-3" d="M116.83,37.76v70.07H77V37.76h39.79m.91-.91H76.13v71.89h41.61V36.85Z"/><path class="cls-4" d="M59.41,45.8A4.19,4.19,0,0,0,55.21,50V81.47H31.41a1.61,1.61,0,0,0-1.6,1.61V94.77a1.61,1.61,0,0,0,1.6,1.61h75.07V45.8Z"/><path class="cls-5" d="M59.41,45.8A4.19,4.19,0,0,0,55.21,50V81.47H31.41a1.61,1.61,0,0,0-1.6,1.61V94.77a1.61,1.61,0,0,0,1.6,1.61h75.07V45.8Z"/><path class="cls-1" d="M90.51,90a9.58,9.58,0,1,1-9.58,9.58A9.58,9.58,0,0,1,90.51,90m0-2.84a12.42,12.42,0,1,0,12.42,12.42A12.43,12.43,0,0,0,90.51,87.15Z"/><path class="cls-1" d="M45.79,90a9.58,9.58,0,1,1-9.59,9.58A9.58,9.58,0,0,1,45.79,90m0-2.84A12.42,12.42,0,1,0,58.21,99.57,12.44,12.44,0,0,0,45.79,87.15Z"/><path class="cls-1" d="M90.51,107A7.45,7.45,0,1,1,98,99.57,7.46,7.46,0,0,1,90.51,107Z"/><path class="cls-3" d="M90.51,94.25a5.32,5.32,0,1,1-5.32,5.32,5.32,5.32,0,0,1,5.32-5.32m0-4.26a9.58,9.58,0,1,0,9.58,9.58A9.58,9.58,0,0,0,90.51,90Z"/><path class="cls-1" d="M45.79,107a7.45,7.45,0,1,1,7.45-7.45A7.46,7.46,0,0,1,45.79,107Z"/><path class="cls-3" d="M45.79,94.25a5.32,5.32,0,1,1-5.33,5.32,5.32,5.32,0,0,1,5.33-5.32m0-4.26a9.58,9.58,0,1,0,9.58,9.58A9.58,9.58,0,0,0,45.79,90Z"/><path class="cls-1" d="M35.41,81.82l8.23-21.57a.67.67,0,0,1,.63-.43h9.32v22Z"/><path class="cls-3" d="M51.82,61.59V80.05H38L45,61.59h6.79M55.37,58H44.27A2.45,2.45,0,0,0,42,59.62l-9.15,24H55.37V58Z"/></g></g></svg>