<svg xmlns="http://www.w3.org/2000/svg" viewBox="0 0 146 146"><defs><style>.cls-1{fill:#fff;}.cls-2{fill:none;stroke:#1d1d1b;stroke-miterlimit:10;stroke-width:2px;}.cls-3{fill:#1d1d1b;}</style></defs><title>Element 4</title><g id="Ebene_2" data-name="Ebene 2"><g id="Umfüllen"><rect class="cls-1" x="1" y="1" width="144" height="144"/><circle class="cls-2" cx="73" cy="73" r="72"/><circle class="cls-1" cx="109.82" cy="45.05" r="10.55"/><path class="cls-3" d="M109.82,36a9.06,9.06,0,1,1-9,9,9.07,9.07,0,0,1,9-9m0-3a12.06,12.06,0,1,0,12.06,12,12.05,12.05,0,0,0-12.06-12Z"/><polygon class="cls-1" points="60.48 77.08 32.88 34.57 109.24 34.57 82.8 77.06 76.9 114.71 65.06 120.63 60.48 77.08"/><path class="cls-3" d="M106.54,36.07,81.69,76l-.32.52-.1.6-5.74,36.6-9.2,4.6L62,77.28l-.07-.72-.4-.6L35.64,36.07h70.9m5.4-3H30.12L59,77.59l4.77,45.35,14.46-7.23,6-38.12,27.7-44.52Z"/></g></g></svg>