<svg id="Verpacken" xmlns="http://www.w3.org/2000/svg" viewBox="0 0 146 146"><defs><style>.cls-1,.cls-4{fill:#fff;}.cls-2{fill:none;}.cls-2,.cls-4{stroke:#1d1d1b;stroke-miterlimit:10;stroke-width:2px;}.cls-3{fill:#1d1d1b;}</style></defs><title>verpacken</title><rect class="cls-1" x="0.11" y="1" width="144" height="144"/><circle class="cls-2" cx="73" cy="73" r="72"/><rect class="cls-2" x="39.74" y="64" width="64.8" height="54"/><polygon class="cls-3" points="55.32 37.5 63.61 37.5 63.61 28.5 80.61 28.5 80.61 37.5 88.9 37.5 72.11 54.29 55.32 37.5"/><path class="cls-3" d="M584,964v9h7.59L576,988.62,560.39,973H568v-9h16m1-1H567v9h-9l18,18,18-18h-9v-9Z" transform="translate(-503.86 -935.03)"/><polygon class="cls-4" points="39.74 85.6 28.94 85.6 39.74 64 50.54 64 39.74 85.6"/><polygon class="cls-2" points="115.34 85.6 93.74 85.6 93.74 64 104.54 64 115.34 85.6"/><rect class="cls-4" x="50.54" y="64" width="54" height="54"/><rect class="cls-3" x="63.61" y="73.5" width="26" height="8"/><path class="cls-3" d="M593,1009v7H568v-7h25m1-1H567v9h27v-9Z" transform="translate(-503.86 -935.03)"/></svg>