<svg id="Verpackung" xmlns="http://www.w3.org/2000/svg" viewBox="0 0 146 146"><defs><style>.cls-1,.cls-5,.cls-6{fill:#fff;}.cls-2,.cls-4{fill:none;stroke-width:2px;}.cls-2,.cls-4,.cls-5,.cls-6{stroke:#1d1d1b;stroke-miterlimit:10;}.cls-3{fill:#1d1d1b;}.cls-4,.cls-5,.cls-6{stroke-linecap:round;}.cls-5{stroke-width:3px;}.cls-6{stroke-width:0.82px;}</style></defs><title>verpackung</title><rect class="cls-1" x="1" y="1" width="144" height="144"/><circle class="cls-2" cx="73" cy="73" r="72"/><rect class="cls-1" x="29" y="38" width="61" height="70"/><path class="cls-3" d="M1024,758v68H965V758h59m2-2H963v72h63V756Z" transform="translate(-934.97 -719.03)"/><path class="cls-1" d="M994,827a3,3,0,0,1-3-3V784.28h61.25V824a3,3,0,0,1-3,3Z" transform="translate(-934.97 -719.03)"/><path class="cls-3" d="M1051.22,785.28V824a2,2,0,0,1-2,2H994a2,2,0,0,1-2-2V785.28h59.25m2-2H990V824a4,4,0,0,0,4,4h55.25a4,4,0,0,0,4-4V783.28Z" transform="translate(-934.97 -719.03)"/><line class="cls-4" x1="86.64" y1="95.09" x2="86.61" y2="74.16"/><line class="cls-4" x1="95.68" y1="79.38" x2="77.57" y2="89.87"/><line class="cls-4" x1="77.55" y1="79.41" x2="95.7" y2="89.84"/><line class="cls-4" x1="86.61" y1="78.84" x2="90.66" y2="76.49"/><line class="cls-4" x1="82.56" y1="76.51" x2="86.52" y2="78.79"/><line class="cls-4" x1="91.63" y1="81.72" x2="91.62" y2="77.04"/><line class="cls-4" x1="95.69" y1="84.05" x2="91.63" y2="81.72"/><line class="cls-4" x1="81.6" y1="77.06" x2="81.61" y2="81.74"/><line class="cls-4" x1="77.56" y1="84.09" x2="81.61" y2="81.74"/><line class="cls-4" x1="77.56" y1="85.2" x2="81.62" y2="87.53"/><line class="cls-4" x1="81.63" y1="92.21" x2="81.62" y2="87.53"/><line class="cls-4" x1="90.77" y1="92.7" x2="86.67" y2="90.34"/><line class="cls-4" x1="82.51" y1="92.71" x2="86.67" y2="90.34"/><line class="cls-4" x1="95.69" y1="85.16" x2="91.63" y2="87.5"/><line class="cls-4" x1="91.65" y1="92.19" x2="91.63" y2="87.5"/><path class="cls-5" d="M59,55h55a4,4,0,0,1,4,4v5a0,0,0,0,1,0,0H55a0,0,0,0,1,0,0V59A4,4,0,0,1,59,55Z"/><rect class="cls-3" x="56" y="38" width="7" height="7"/><path class="cls-3" d="M997,758v5h-5v-5h5m2-2h-9v9h9v-9Z" transform="translate(-934.97 -719.03)"/><rect class="cls-6" x="29.97" y="55" width="12.14" height="18"/></svg>