<svg id="Wareneingang" xmlns="http://www.w3.org/2000/svg" viewBox="0 0 146 146"><defs><style>.cls-1{fill:#fff;}.cls-2,.cls-3,.cls-5{fill:none;stroke:#1d1d1b;stroke-miterlimit:10;}.cls-2{stroke-width:2px;}.cls-3,.cls-5{stroke-linecap:round;}.cls-3{stroke-width:6px;}.cls-4{fill:#1d1d1b;}.cls-5{stroke-width:4px;}</style></defs><title>wareneingang</title><rect class="cls-1" x="1" y="1" width="144" height="144"/><circle class="cls-2" cx="73" cy="73" r="72"/><path class="cls-3" d="M98.83,107.87h18a3.22,3.22,0,0,1,3.11,2.37l24.79,73.31a4.31,4.31,0,0,0,5.52,2.95l38.6-13.34" transform="translate(-70.97 -71.03)"/><path class="cls-4" d="M176.67,134.81l10.89,31.79-37.49,12.84-10.89-31.79,37.49-12.84m2.49-5.08L134.1,145.16l13.48,39.36,45.06-15.43-13.48-39.36Z" transform="translate(-70.97 -71.03)"/><circle class="cls-1" cx="60.91" cy="112" r="12"/><path class="cls-4" d="M131.88,174a9,9,0,1,1-9,9,9,9,0,0,1,9-9m0-6a15,15,0,1,0,15,15,15,15,0,0,0-15-15Z" transform="translate(-70.97 -71.03)"/><line class="cls-5" x1="83.25" y1="84.16" x2="98.37" y2="78.91"/></svg>