<svg id="Wasserversorgung" xmlns="http://www.w3.org/2000/svg" viewBox="0 0 146 146"><defs><style>.cls-1{fill:#fff;}.cls-2{fill:none;stroke-width:2px;}.cls-2,.cls-4{stroke:#1d1d1b;stroke-miterlimit:10;}.cls-3,.cls-4{fill:#1d1d1b;}.cls-4{stroke-width:1.76px;}</style></defs><title>wasserversorgung</title><rect class="cls-1" x="1" y="1" width="144" height="144"/><circle class="cls-2" cx="73" cy="73" r="72"/><rect class="cls-3" x="31.04" y="68.1" width="17.09" height="2.36" rx="1.18"/><path class="cls-3" d="M981.92,358.4H967.19a2.09,2.09,0,1,1,0-4.18h14.73a2.09,2.09,0,1,1,0,4.18Zm-14.73-2.35a.26.26,0,1,0,0,.52h14.73a.26.26,0,0,0,0-.52Z" transform="translate(-934.97 -287.03)"/><path class="cls-1" d="M990.17,358H965V344h24.51a3,3,0,0,1,.59.06l42.9,8.58v13.92Z" transform="translate(-934.97 -287.03)"/><path class="cls-3" d="M989.48,346l.19,0,41.3,8.26v9.84l-40.21-8-.39-.08H967V346h22.51m0-4H965a2,2,0,0,0-2,2v16h27l45,9V351l-44.51-8.9a4.66,4.66,0,0,0-1-.1Z" transform="translate(-934.97 -287.03)"/><rect class="cls-1" x="93.89" y="48.44" width="21.5" height="59.19"/><path class="cls-3" d="M1051.73,396h-24.24v-61.9h24.24Zm-21.5-2.71H1049V336.82h-18.76Z" transform="translate(-934.97 -287.03)"/><line class="cls-2" x1="109.68" y1="54.11" x2="109.68" y2="100.52"/><rect class="cls-1" x="56" y="38" width="43" height="7"/><path class="cls-3" d="M1033,326v5H992v-5h41m2-2H990v9h45v-9Z" transform="translate(-934.97 -287.03)"/><rect class="cls-1" x="93" y="30" width="23" height="23"/><path class="cls-3" d="M1049,319v19h-19V319h19m4-4h-27v27h27V315Z" transform="translate(-934.97 -287.03)"/><path class="cls-4" d="M984.38,384c0-4.37-7.92-15.84-7.92-15.84s-7.92,11.47-7.92,15.84a7.92,7.92,0,1,0,15.84,0Z" transform="translate(-934.97 -287.03)"/></svg>